<?xml version="1.0" standalone="no"?>
<!DOCTYPE svg PUBLIC "-//W3C//DTD SVG 20010904//EN"
 "http://www.w3.org/TR/2001/REC-SVG-20010904/DTD/svg10.dtd">
<svg version="1.0" xmlns="http://www.w3.org/2000/svg"
 width="128.000000pt" height="128.000000pt" viewBox="0 0 128.000000 128.000000"
 preserveAspectRatio="xMidYMid meet">
<metadata>
Created by potrace 1.14, written by Peter Selinger 2001-2017
</metadata>
<g transform="translate(0.000000,128.000000) scale(0.100000,-0.100000)"
fill="#000000" stroke="none">
<path d="M595 915 c-55 -17 -121 -53 -144 -78 -57 -62 -91 -111 -92 -133 -1
-13 -2 -30 -3 -36 -1 -7 2 -22 8 -33 5 -11 11 -36 12 -55 1 -20 16 -66 33
-103 25 -53 37 -68 59 -73 15 -4 33 -11 40 -17 6 -5 12 -6 12 -2 0 4 12 -1 27
-11 25 -16 53 -20 165 -25 27 -1 46 6 68 25 18 14 28 26 23 27 -4 0 2 4 14 9
20 8 89 97 81 105 -2 2 -35 -18 -74 -45 -40 -27 -74 -47 -77 -44 -3 3 -22 -2
-43 -11 -46 -19 -134 -13 -174 13 -35 22 -78 62 -102 96 -23 32 -40 103 -27
112 5 3 7 9 5 12 -10 17 16 108 40 139 36 48 126 103 171 106 20 1 38 7 40 13
6 18 -19 22 -62 9z"/>
<path d="M697 903 c-23 -6 -17 -27 9 -32 10 -2 48 -23 84 -46 59 -38 90 -75
90 -106 0 -6 9 -22 20 -37 l21 -25 -7 53 c-7 61 -56 146 -100 175 -28 18 -86
27 -117 18z"/>
<path d="M613 703 c-22 -8 -14 -33 12 -43 15 -6 25 -17 25 -29 0 -20 -25 -35
-41 -25 -5 3 -17 0 -26 -6 -16 -11 -16 -11 -1 -6 10 3 20 1 23 -4 4 -6 -2 -10
-12 -11 -11 0 -13 -3 -5 -6 7 -3 22 3 32 12 12 11 26 14 40 10 25 -8 51 11 43
31 -3 8 -14 14 -25 14 -12 0 -24 12 -34 35 -8 19 -15 35 -17 34 -1 0 -8 -3
-14 -6z"/>
</g>
</svg>
